<?xml version="1.0" encoding="UTF-8" standalone="no"?>
<svg
   height="48px"
   viewBox="0 -960 960 960"
   width="48px"
   fill="#e8eaed"
   version="1.1"
   id="svg12"
   sodipodi:docname="timer_48dp_E8EAED_FILL0_wght400_GRAD0_opsz48.svg"
   xml:space="preserve"
   inkscape:export-filename="timer-48.png"
   inkscape:export-xdpi="96"
   inkscape:export-ydpi="96"
   inkscape:version="1.2.1 (9c6d41e410, 2022-07-14)"
   xmlns:inkscape="http://www.inkscape.org/namespaces/inkscape"
   xmlns:sodipodi="http://sodipodi.sourceforge.net/DTD/sodipodi-0.dtd"
   xmlns="http://www.w3.org/2000/svg"
   xmlns:svg="http://www.w3.org/2000/svg"><defs
     id="defs16" /><sodipodi:namedview
     id="namedview14"
     pagecolor="#ffffff"
     bordercolor="#000000"
     borderopacity="0.25"
     inkscape:showpageshadow="2"
     inkscape:pageopacity="0.0"
     inkscape:pagecheckerboard="0"
     inkscape:deskcolor="#d1d1d1"
     showgrid="false"
     inkscape:zoom="8.8229167"
     inkscape:cx="-1.0767414"
     inkscape:cy="32.188902"
     inkscape:window-width="1920"
     inkscape:window-height="1027"
     inkscape:window-x="3020"
     inkscape:window-y="1042"
     inkscape:window-maximized="1"
     inkscape:current-layer="svg12" /><path
     d="m 612.6445,-877.38082 v -66.32225 H 347.35549 v 66.32225 z m -99.48338,494.10077 h -66.32225 v -254.2353 h 66.32225 z M 480,-16.29693 q 81.79744,0 154.19923,-31.503069 72.40179,-31.503069 126.56496,-85.666241 54.16317,-54.16317 85.66624,-126.56496 31.50307,-72.40179 31.50307,-154.19924 0,-81.79744 -31.50307,-154.19923 -31.50307,-72.40179 -85.66624,-126.56496 Q 706.60102,-749.1578 634.19923,-780.66087 561.79744,-812.16394 480,-812.16394 q -74.05985,0 -139.27673,24.87084 -65.21688,24.87085 -116.06394,69.08568 l -56.37391,-56.37391 -46.42557,46.42557 56.3739,56.37392 q -39.79335,44.21483 -67.9803,107.22097 -28.186955,63.00614 -28.186955,150.33043 0,81.79745 31.503065,154.19924 31.50307,72.40179 85.66624,126.56496 54.16317,54.163172 126.56496,85.666241 Q 398.20255,-16.29693 480,-16.29693 Z m 0,-66.32225 q -138.17136,0 -234.89131,-96.71995 -96.71995,-96.71995 -96.71995,-234.89131 0,-138.17135 96.71995,-234.8913 96.71995,-96.71995 234.89131,-96.71995 138.17135,0 234.8913,96.71995 96.71995,96.71995 96.71995,234.8913 0,138.17136 -96.71995,234.89131 Q 618.17135,-82.61918 480,-82.61918 Z m 0,-330.50588 z"
     id="path10"
     style="display:inline;fill:#888787;fill-opacity:1;stroke-width:1.10537" /><g
     style="fill:#2e333a;fill-opacity:1"
     id="g262"
     transform="matrix(-1.4728516,0,0,1.4728516,1157.5117,197.51174)" /><path
     style="opacity:1;fill:#d40000;fill-opacity:1;fill-rule:evenodd;stroke:#000000;stroke-width:1.05861;stroke-linecap:round;stroke-linejoin:bevel;stroke-dasharray:none;stroke-dashoffset:0.4781;stroke-opacity:1;paint-order:stroke fill markers;stop-color:#000000"
     d="m 523.50262,-495.0059 104.41932,-70.17435 17.70164,26.34001 17.70164,26.34002 -104.41932,70.17435 -104.41934,70.17436 -17.70164,-26.34001 -17.70164,-26.34002 z"
     id="path8791"
     inkscape:transform-center-x="-92.939787"
     inkscape:transform-center-y="-58.937426" /><path
     style="opacity:1;fill:#ffcc00;fill-opacity:1;fill-rule:evenodd;stroke:#000000;stroke-width:0.0529303;stroke-linecap:round;stroke-linejoin:bevel;stroke-dasharray:none;stroke-dashoffset:0.4781;stroke-opacity:1;paint-order:stroke fill markers;stop-color:#000000"
     d="m 22.384888,22.441558 v -6.290436 h 1.586777 1.586777 v 6.290436 6.290437 h -1.586777 -1.586777 z"
     id="path8789"
     transform="matrix(20,0,0,20,0,-960)" /></svg>
